<?xml version="1.0" standalone="no"?>
<svg xmlns:xlink="http://www.w3.org/1999/xlink" id="wave" style="transform:rotate(180deg); transition: 0.3s" viewBox="0 0 1440 100" version="1.1" xmlns="http://www.w3.org/2000/svg"><defs><linearGradient id="sw-gradient-0" x1="0" x2="0" y1="1" y2="0"><stop stop-color="rgba(235, 230, 218, 1)" offset="0%"/><stop stop-color="rgba(235, 230, 218, 1)" offset="100%"/></linearGradient></defs><path style="transform:translate(0, 0px); opacity:1" fill="url(#sw-gradient-0)" d="M0,90L26.7,76.7C53.3,63,107,37,160,26.7C213.3,17,267,23,320,36.7C373.3,50,427,70,480,73.3C533.3,77,587,63,640,58.3C693.3,53,747,57,800,60C853.3,63,907,67,960,61.7C1013.3,57,1067,43,1120,40C1173.3,37,1227,43,1280,40C1333.3,37,1387,23,1440,23.3C1493.3,23,1547,37,1600,36.7C1653.3,37,1707,23,1760,15C1813.3,7,1867,3,1920,13.3C1973.3,23,2027,47,2080,58.3C2133.3,70,2187,70,2240,71.7C2293.3,73,2347,77,2400,78.3C2453.3,80,2507,80,2560,66.7C2613.3,53,2667,27,2720,28.3C2773.3,30,2827,60,2880,66.7C2933.3,73,2987,57,3040,41.7C3093.3,27,3147,13,3200,10C3253.3,7,3307,13,3360,15C3413.3,17,3467,13,3520,21.7C3573.3,30,3627,50,3680,60C3733.3,70,3787,70,3813,70L3840,70L3840,100L3813.3,100C3786.7,100,3733,100,3680,100C3626.7,100,3573,100,3520,100C3466.7,100,3413,100,3360,100C3306.7,100,3253,100,3200,100C3146.7,100,3093,100,3040,100C2986.7,100,2933,100,2880,100C2826.7,100,2773,100,2720,100C2666.7,100,2613,100,2560,100C2506.7,100,2453,100,2400,100C2346.7,100,2293,100,2240,100C2186.7,100,2133,100,2080,100C2026.7,100,1973,100,1920,100C1866.7,100,1813,100,1760,100C1706.7,100,1653,100,1600,100C1546.7,100,1493,100,1440,100C1386.7,100,1333,100,1280,100C1226.7,100,1173,100,1120,100C1066.7,100,1013,100,960,100C906.7,100,853,100,800,100C746.7,100,693,100,640,100C586.7,100,533,100,480,100C426.7,100,373,100,320,100C266.7,100,213,100,160,100C106.7,100,53,100,27,100L0,100Z"/></svg>